<svg width="214" height="120" viewBox="0 0 214 120" fill="none" xmlns="http://www.w3.org/2000/svg">
<g clip-path="url(#clip0_259_14879)">
<path opacity="0.1" d="M36.6765 29.9C74.643 21.2111 78.7085 -0.0111067 103.246 4.36132e-06C127.783 0.0111155 130.549 21.4111 153.242 13.8444C175.935 6.27778 197.007 12.0333 199.828 44.8444C202.65 77.6556 191.175 103.811 129.804 91.9778C68.4337 80.1444 77.1089 110.667 49.506 106.689C21.9031 102.722 -1.29006 38.5889 36.6765 29.9Z" fill="#2A94F4"/>
<path opacity="0.1" d="M106.367 119.244C132.703 119.244 154.053 116.503 154.053 113.122C154.053 109.741 132.703 107 106.367 107C80.0307 107 58.681 109.741 58.681 113.122C58.681 116.503 80.0307 119.244 106.367 119.244Z" fill="#34C3EA"/>
<path d="M99.5579 69.9333H113.176V111.311H99.5579V69.9333Z" fill="#0B4870"/>
<path d="M48.6285 93.8777H164.094C164.683 93.8777 165.161 93.3999 165.161 92.811V11.9666C165.161 11.3777 164.683 10.8999 164.094 10.8999H48.6285C48.0398 10.8999 47.5621 11.3777 47.5621 11.9666V92.8221C47.5621 93.411 48.0398 93.8777 48.6285 93.8777Z" fill="#0E538C"/>
<path d="M102.568 86.8334C102.568 88.9334 104.267 90.6334 106.367 90.6334C108.466 90.6334 110.166 88.9334 110.166 86.8334C110.166 84.7334 108.466 83.0445 106.367 83.0445C104.267 83.0334 102.568 84.7334 102.568 86.8334Z" fill="#163C47"/>
<path d="M75.7316 106.389H137.002V113.122H75.7316V106.389Z" fill="#0E538C"/>
<path d="M160.795 78.7942L51.7165 78.7942L51.7165 14.9609L160.795 14.9609V78.7942Z" fill="#CCE9FF"/>
<path d="M56.4706 19.7112H155.863V25.8223H56.4706V19.7112Z" fill="#2A94F4"/>
<path d="M56.4706 25.8223H155.863V63.5112H56.4706V25.8223Z" fill="#F7F7F7"/>
<path d="M53.5936 48.2112H99.5134V74.1112H53.5936V48.2112Z" fill="#31A1F4"/>
<path d="M53.5936 45.6445H100.18V48.2112H53.5936V45.6445Z" fill="#D3D3D3"/>
<path d="M74.654 51.5889H92.6043V51.9H74.654V51.5889ZM55.6708 50.4333H96.492V50.7445H55.6708V50.4333ZM55.6708 51.5889H73.621V51.9H55.6708V51.5889ZM93.4707 51.5889H96.492V51.9H93.4707V51.5889Z" fill="white"/>
<path d="M77.4999 54.5156H59.5496V54.2045H77.4999V54.5156Z" fill="white"/>
<path d="M96.4836 55.6792L55.6624 55.6792V55.3681L96.4836 55.3681V55.6792Z" fill="white"/>
<path d="M96.4852 54.5156H78.535V54.2045H96.4852V54.5156Z" fill="white"/>
<path d="M58.6799 54.5156H55.6586V54.2045H58.6799V54.5156Z" fill="white"/>
<path d="M55.6708 52.7444H96.492V53.0555H55.6708V52.7444ZM74.654 58.0444H92.6043V58.3555H74.654V58.0444ZM55.6708 56.8888H96.492V57.1999H55.6708V56.8888ZM55.6708 58.0444H73.621V58.3555H55.6708V58.0444ZM93.4707 58.0444H96.492V58.3555H93.4707V58.0444Z" fill="white"/>
<path d="M77.4999 60.9812H59.5496V60.6701H77.4999V60.9812Z" fill="white"/>
<path d="M96.4836 62.1335L55.6624 62.1335V61.8224L96.4836 61.8224V62.1335Z" fill="white"/>
<path d="M96.4852 60.9812H78.535V60.6701H96.4852V60.9812Z" fill="white"/>
<path d="M58.6799 60.9812H55.6586V60.6701H58.6799V60.9812Z" fill="white"/>
<path d="M55.6708 59.2H96.492V59.5111H55.6708V59.2Z" fill="white"/>
<path d="M98.4803 48.2112H100.169V74.1112H98.4803V48.2112Z" fill="#ADCFE0"/>
<path d="M103.59 36.7112H155.863V42.8223H103.59V36.7112Z" fill="#31A1F4"/>
<path d="M103.59 42.8223H155.863V74.1H103.59V42.8223Z" fill="#F7F7F7"/>
<path d="M99.8577 48.5779H98.7914C98.6136 48.5779 98.4803 48.7223 98.4803 48.889V50.1223C98.4803 50.3001 98.6247 50.4334 98.7914 50.4334H99.8577C100.035 50.4334 100.169 50.289 100.169 50.1223V48.889C100.18 48.7223 100.035 48.5779 99.8577 48.5779Z" fill="#E9F8FF"/>
<path d="M118.674 82.2737L122.929 76.7029L137.324 87.7064L133.069 93.2772L118.674 82.2737Z" fill="#FFBE55"/>
<path opacity="0.08" d="M118.674 82.2737L122.929 76.7029L137.324 87.7064L133.069 93.2772L118.674 82.2737Z" fill="black"/>
<path d="M160.484 107.655L158.385 110.4C157.03 112.178 154.486 112.522 152.709 111.155L129.882 93.711L136.902 84.5332L159.729 101.978C161.506 103.333 161.839 105.878 160.484 107.655Z" fill="#FFBE55"/>
<path d="M94.8037 93.5223C114.195 93.5223 129.916 77.7975 129.916 58.4001C129.916 39.0026 114.195 23.2778 94.8037 23.2778C75.412 23.2778 59.6919 39.0026 59.6919 58.4001C59.6919 77.7975 75.412 93.5223 94.8037 93.5223Z" fill="#FFBE55"/>
<mask id="mask0_259_14879" style="mask-type:luminance" maskUnits="userSpaceOnUse" x="65" y="29" width="59" height="59">
<path d="M94.8037 87.6445C110.834 87.6445 123.828 74.6459 123.828 58.6112C123.828 42.5765 110.834 29.5779 94.8037 29.5779C78.7737 29.5779 65.7789 42.5765 65.7789 58.6112C65.7789 74.6459 78.7737 87.6445 94.8037 87.6445Z" fill="white"/>
</mask>
<g mask="url(#mask0_259_14879)">
<path d="M146.648 99.0742L28.3829 99.0742L28.3829 23.3187L146.648 23.3187V99.0742Z" fill="#CCE9FF"/>
<path d="M33.5327 22.7668H141.29V71.9113H33.5327V22.7668Z" fill="#F7F7F7"/>
<path d="M31.7001 44.7112H113.298V90.7223H31.7001V44.7112Z" fill="#2A94F4"/>
<path d="M31.7001 40.1667H114.476V44.7223H31.7001V40.1667Z" fill="#D3D3D3"/>
<path d="M69.1333 50.7223H101.024V51.2779H69.1333V50.7223ZM35.3877 48.6667H107.922V49.2223H35.3877V48.6667ZM35.3877 50.7223H67.2783V51.2779H35.3877V50.7223ZM102.568 50.7223H107.933V51.2779H102.568V50.7223Z" fill="white"/>
<path d="M74.1875 55.9314L42.2969 55.9314V55.3758L74.1875 55.3758V55.9314Z" fill="white"/>
<path d="M107.93 57.9966L35.3964 57.9966V57.441L107.93 57.441V57.9966Z" fill="white"/>
<path d="M107.931 55.9314L76.04 55.9314V55.3758L107.931 55.3758V55.9314Z" fill="white"/>
<path d="M35.3877 52.7891H107.922V53.3446H35.3877V52.7891ZM69.1333 62.2002H101.024V62.7557H69.1333V62.2002ZM35.3877 60.1335H107.922V60.6891H35.3877V60.1335ZM35.3877 62.2002H67.2783V62.7557H35.3877V62.2002ZM102.568 62.2002H107.933V62.7557H102.568V62.2002Z" fill="white"/>
<path d="M74.1875 67.4053H42.2969V66.8497H74.1875V67.4053Z" fill="white"/>
<path d="M107.93 69.4709L35.3964 69.4709V68.9154L107.93 68.9154V69.4709Z" fill="white"/>
<path d="M107.931 67.4053H76.04V66.8497H107.931V67.4053Z" fill="white"/>
<path d="M35.3877 64.2559H107.922V64.8114H35.3877V64.2559Z" fill="white"/>
<path d="M111.476 44.7114H114.486V90.7225H111.476V44.7114Z" fill="#CCE9FF"/>
<path d="M114.164 45.3669H111.776C111.598 45.3669 111.465 45.5114 111.465 45.6781V48.3447C111.465 48.5225 111.609 48.6558 111.776 48.6558H114.164C114.342 48.6558 114.475 48.5114 114.475 48.3447V45.6781C114.475 45.5114 114.342 45.3669 114.164 45.3669Z" fill="#F7F7F7"/>
</g>
</g>
<defs>
<clipPath id="clip0_259_14879">
<rect width="213.27" height="120" fill="white" transform="translate(0.36499)"/>
</clipPath>
</defs>
</svg>
