<svg width="30" height="28" viewBox="0 0 30 28" fill="none" xmlns="http://www.w3.org/2000/svg">
<path d="M15.0001 7.4375C15.0001 11.0619 12.0619 14 8.43756 14H1.87506V7.4375C1.87506 3.81313 4.81319 0.875 8.43756 0.875C12.0619 0.875 15.0001 3.81313 15.0001 7.4375Z" fill="#17CF97"/>
<path d="M15.0001 20.5625C15.0001 16.9381 17.9382 14 21.5626 14H28.1251V20.5625C28.1251 24.1869 25.1869 27.125 21.5626 27.125C17.9382 27.125 15.0001 24.1869 15.0001 20.5625Z" fill="#17CF97"/>
<path d="M1.87506 20.5625C1.87506 24.1869 4.81319 27.125 8.43756 27.125H15.0001V20.5625C15.0001 16.9381 12.0619 14 8.43756 14C4.81319 14 1.87506 16.9381 1.87506 20.5625Z" fill="#17CF97"/>
<path d="M28.1251 7.4375C28.1251 3.81313 25.1869 0.875 21.5626 0.875H15.0001V7.4375C15.0001 11.0619 17.9382 14 21.5626 14C25.1869 14 28.1251 11.0619 28.1251 7.4375Z" fill="#17CF97"/>
</svg>
