<svg width="128" height="28" viewBox="0 0 128 28" fill="none" xmlns="http://www.w3.org/2000/svg">
<path d="M15.0001 7.4375C15.0001 11.0619 12.0619 14 8.43756 14H1.87506V7.4375C1.87506 3.81313 4.81319 0.875 8.43756 0.875C12.0619 0.875 15.0001 3.81313 15.0001 7.4375Z" fill="#17CF97"/>
<path d="M15.0001 20.5625C15.0001 16.9381 17.9382 14 21.5626 14H28.1251V20.5625C28.1251 24.1869 25.1869 27.125 21.5626 27.125C17.9382 27.125 15.0001 24.1869 15.0001 20.5625Z" fill="#17CF97"/>
<path d="M1.87506 20.5625C1.87506 24.1869 4.81319 27.125 8.43756 27.125H15.0001V20.5625C15.0001 16.9381 12.0619 14 8.43756 14C4.81319 14 1.87506 16.9381 1.87506 20.5625Z" fill="#17CF97"/>
<path d="M28.1251 7.4375C28.1251 3.81313 25.1869 0.875 21.5626 0.875H15.0001V7.4375C15.0001 11.0619 17.9382 14 21.5626 14C25.1869 14 28.1251 11.0619 28.1251 7.4375Z" fill="#17CF97"/>
<path d="M38.2357 17.676V22.5H34.9717V5.22H42.2677C42.6037 5.22 43.2637 5.232 43.7077 5.316C45.7717 5.64 46.9957 6.444 47.6677 7.908C48.0037 8.64 48.1717 9.492 48.1717 10.464C48.1717 12.768 47.5357 14.712 44.6677 14.892L44.7277 16.608H39.3157C38.4637 16.608 38.2117 16.476 37.7197 16.14L37.5397 16.344C37.9837 16.728 38.2357 17.088 38.2357 17.676ZM41.1637 15.192C43.0597 15.192 44.9197 15.096 46.2037 15.36C46.7437 15.48 47.2237 15.768 47.6437 16.212C47.9797 16.572 48.1477 17.148 48.1477 17.94C48.1477 18.744 48.1477 19.344 48.1477 19.752V22.5H44.9077V19.74C44.9077 18.732 44.9197 17.904 44.6437 17.412C44.3557 16.872 43.8997 16.608 43.2637 16.608C42.6277 16.608 41.9317 16.608 41.1637 16.608V15.192ZM37.5397 14.04L37.7317 14.232C38.1517 13.812 38.5357 13.596 39.3157 13.596H42.1237C42.4597 13.596 42.8917 13.572 43.2277 13.476C44.1037 13.236 44.5597 12.612 44.7517 11.916C44.8357 11.568 44.8837 11.244 44.8837 10.932C44.8837 10.308 44.7277 9.564 44.2477 8.988C44.0077 8.712 43.6717 8.508 43.2277 8.388C42.8917 8.292 42.4597 8.268 42.1237 8.268H39.3157C38.5957 8.268 38.2837 8.016 37.8397 7.512L37.6117 7.668C37.9957 8.124 38.2357 8.664 38.2357 9.336V12.624C38.2357 13.356 37.9717 13.656 37.5397 14.04ZM56.4738 22.86C53.8218 22.86 51.7338 21.648 50.5938 19.632C50.0178 18.636 49.7298 17.484 49.7298 16.188C49.7298 13.356 50.9178 11.208 52.8858 10.044C53.8698 9.468 54.9978 9.18 56.2818 9.18C59.0058 9.18 60.9498 10.524 61.8618 12.84C62.3178 14.004 62.4738 15.36 62.3418 16.932H59.1138V15.732C59.1138 13.092 58.3338 12.012 56.4258 12.012C54.2058 12.012 53.1858 13.38 53.1858 16.02C53.1858 18.432 54.2538 19.812 56.2818 19.812C57.5658 19.812 58.4898 19.236 58.9698 18.18H62.3898C61.7538 21.384 58.9698 22.86 56.4738 22.86ZM60.7698 16.932H52.1778V14.508H53.2098L53.1018 15.612H53.4858C53.5698 14.892 54.1098 14.508 55.0098 14.508H60.7698V16.932ZM70.1634 22.86C67.4754 22.86 65.5194 21.576 64.4994 19.512C63.9834 18.48 63.7314 17.316 63.7314 16.02C63.7314 13.392 64.8474 11.256 66.7794 10.068C67.7514 9.48 68.8914 9.18 70.2114 9.18C73.2714 9.18 75.6114 10.896 76.0434 14.364H72.7794C72.3954 13.02 71.3634 12.228 70.1634 12.228C68.1594 12.228 67.1874 13.752 67.1874 16.02C67.1874 18.276 68.1954 19.812 70.1634 19.812C71.6394 19.812 72.3234 19.116 72.7074 17.868H76.0434C75.6114 21.276 73.1754 22.86 70.1634 22.86ZM83.324 22.86C80.72 22.86 78.692 21.624 77.6 19.56C77.048 18.54 76.772 17.352 76.772 16.02C76.772 13.32 77.96 11.196 79.928 10.044C80.912 9.468 82.04 9.18 83.324 9.18C85.928 9.18 87.968 10.416 89.072 12.468C89.624 13.5 89.9 14.688 89.9 16.02C89.9 18.708 88.724 20.832 86.756 21.984C85.76 22.572 84.62 22.86 83.324 22.86ZM83.324 19.812C85.424 19.812 86.444 18.24 86.444 16.02C86.444 13.716 85.388 12.228 83.324 12.228C81.248 12.228 80.228 13.692 80.228 16.02C80.228 18.336 81.296 19.812 83.324 19.812ZM95.2269 22.5H91.9389V9.54H94.8189V10.116C94.8189 10.98 94.5909 11.832 94.3509 12.708H94.6269C95.0469 11.496 95.3829 10.728 95.6349 10.38C96.1149 9.696 96.7749 9.504 97.6989 9.504H99.5469V12.504L97.4109 12.516C96.6069 12.504 96.0429 12.672 95.7189 13.02C95.3709 13.392 95.2029 14.052 95.2389 14.988L95.2269 22.5ZM105.783 22.86C103.575 22.86 101.871 21.576 100.959 19.512C100.491 18.48 100.263 17.316 100.263 16.02C100.263 13.38 101.247 11.256 102.951 10.068C103.803 9.48 104.799 9.18 105.939 9.18C109.227 9.18 111.159 11.952 111.159 16.02C111.159 20.088 109.227 22.86 105.783 22.86ZM112.623 5.22V22.5H109.743V22.236C109.743 21.564 110.175 20.784 110.559 20.364L110.211 20.112L109.743 20.76V13.62H109.335V10.716L109.875 11.28L110.175 11.076C109.599 10.524 109.335 9.828 109.335 9.36V5.22H112.623ZM106.767 19.956C108.219 19.956 109.071 19.272 109.455 18.084C109.647 17.496 109.743 16.8 109.743 16.02C109.743 14.448 109.383 13.236 108.543 12.576C108.123 12.252 107.571 12.084 106.887 12.084C104.775 12.084 103.719 13.728 103.719 16.02C103.719 18.336 104.739 19.956 106.767 19.956ZM120.459 22.86C117.195 22.86 115.131 21.48 114.615 18.108H118.011C118.287 19.32 119.259 20.052 120.699 20.052C121.887 20.052 122.547 19.572 122.547 18.756C122.547 18.24 122.391 17.976 121.503 17.676C121.059 17.52 120.363 17.328 119.427 17.076C117.315 16.536 116.091 15.888 115.527 14.952C115.251 14.484 115.107 13.92 115.107 13.26C115.107 11.592 115.995 10.344 117.543 9.672C118.311 9.348 119.223 9.18 120.267 9.18C122.295 9.18 123.903 9.828 124.875 10.98C125.355 11.556 125.655 12.432 125.775 13.62H122.427C122.319 12.66 121.575 12.084 120.339 11.988C119.139 11.904 118.347 12.336 118.347 13.092C118.347 13.596 118.683 13.836 119.559 14.124C120.051 14.28 120.795 14.496 121.803 14.748C124.647 15.492 125.883 16.524 125.883 18.588C125.883 21.24 123.855 22.86 120.459 22.86Z" fill="#5D5F66"/>
</svg>
