<svg width="17" height="17" viewBox="0 0 17 17" fill="none" xmlns="http://www.w3.org/2000/svg">
<path d="M13.4583 16.2917L12.4667 15.3L13.5823 14.1667H10.625V12.75H13.5823L12.4667 11.6167L13.4583 10.625L16.2917 13.4583L13.4583 16.2917ZM3.54167 14.875C3.15208 14.875 2.81869 14.7364 2.5415 14.4592C2.26431 14.182 2.12547 13.8484 2.125 13.4583V3.54167C2.125 3.15208 2.26383 2.81869 2.5415 2.5415C2.81917 2.26431 3.15256 2.12547 3.54167 2.125H13.4583C13.8479 2.125 14.1815 2.26383 14.4592 2.5415C14.7369 2.81917 14.8755 3.15256 14.875 3.54167V9.45625C14.6507 9.37361 14.4177 9.31175 14.1759 9.27067C13.9341 9.22958 13.689 9.20881 13.4406 9.20833C12.9802 9.20833 12.5434 9.27917 12.1302 9.42083C11.717 9.5625 11.3392 9.75729 10.9969 10.0052L9.49167 8.5L11.5104 6.48125L10.5188 5.48958L8.5 7.50833L6.48125 5.48958L5.48958 6.48125L7.50833 8.5L5.48958 10.5188L6.48125 11.5104L8.5 9.49167L10.0052 10.9969C9.75729 11.3392 9.5625 11.7201 9.42083 12.1394C9.27917 12.5588 9.20833 12.9984 9.20833 13.4583C9.20833 13.7063 9.22911 13.9483 9.27067 14.1844C9.31222 14.4205 9.37408 14.6507 9.45625 14.875H3.54167Z" fill="black"/>
</svg>
