<svg width="38" height="36" viewBox="0 0 38 36" fill="none" xmlns="http://www.w3.org/2000/svg">
<path d="M18.8647 9.56256C18.8647 14.2225 15.0871 18.0001 10.4272 18.0001H1.98975V9.56256C1.98975 4.90265 5.76734 1.12506 10.4272 1.12506C15.0871 1.12506 18.8647 4.90265 18.8647 9.56256Z" fill="#11BB88"/>
<path d="M18.8647 26.4376C18.8647 21.7777 22.6423 18.0001 27.3022 18.0001H35.7397V26.4376C35.7397 31.0975 31.9621 34.8751 27.3022 34.8751C22.6423 34.8751 18.8647 31.0975 18.8647 26.4376Z" fill="#11BB88"/>
<path d="M1.98975 26.4376C1.98975 31.0975 5.76734 34.8751 10.4272 34.8751H18.8647V26.4376C18.8647 21.7777 15.0871 18.0001 10.4272 18.0001C5.76734 18.0001 1.98975 21.7777 1.98975 26.4376Z" fill="#11BB88"/>
<path d="M35.7397 9.56256C35.7397 4.90265 31.9621 1.12506 27.3022 1.12506H18.8647V9.56256C18.8647 14.2225 22.6423 18.0001 27.3022 18.0001C31.9621 18.0001 35.7397 14.2225 35.7397 9.56256Z" fill="#11BB88"/>
</svg>
