<svg width="127" height="28" viewBox="0 0 127 28" fill="none" xmlns="http://www.w3.org/2000/svg">
<path d="M14.292 7.4375C14.292 11.0619 11.3539 14 7.72949 14H1.16699V7.4375C1.16699 3.81313 4.10512 0.875 7.72949 0.875C11.3539 0.875 14.292 3.81313 14.292 7.4375Z" fill="#17CF97"/>
<path d="M14.292 20.5625C14.292 16.9381 17.2301 14 20.8545 14H27.417V20.5625C27.417 24.1869 24.4789 27.125 20.8545 27.125C17.2301 27.125 14.292 24.1869 14.292 20.5625Z" fill="#17CF97"/>
<path d="M1.16699 20.5625C1.16699 24.1869 4.10512 27.125 7.72949 27.125H14.292V20.5625C14.292 16.9381 11.3539 14 7.72949 14C4.10512 14 1.16699 16.9381 1.16699 20.5625Z" fill="#17CF97"/>
<path d="M27.417 7.4375C27.417 3.81313 24.4789 0.875 20.8545 0.875H14.292V7.4375C14.292 11.0619 17.2301 14 20.8545 14C24.4789 14 27.417 11.0619 27.417 7.4375Z" fill="#17CF97"/>
<path d="M37.527 17.676V22.5H34.263V5.22H41.559C41.895 5.22 42.555 5.232 42.999 5.316C45.063 5.64 46.287 6.444 46.959 7.908C47.295 8.64 47.463 9.492 47.463 10.464C47.463 12.768 46.827 14.712 43.959 14.892L44.019 16.608H38.607C37.755 16.608 37.503 16.476 37.011 16.14L36.831 16.344C37.275 16.728 37.527 17.088 37.527 17.676ZM40.455 15.192C42.351 15.192 44.211 15.096 45.495 15.36C46.035 15.48 46.515 15.768 46.935 16.212C47.271 16.572 47.439 17.148 47.439 17.94C47.439 18.744 47.439 19.344 47.439 19.752V22.5H44.199V19.74C44.199 18.732 44.211 17.904 43.935 17.412C43.647 16.872 43.191 16.608 42.555 16.608C41.919 16.608 41.223 16.608 40.455 16.608V15.192ZM36.831 14.04L37.023 14.232C37.443 13.812 37.827 13.596 38.607 13.596H41.415C41.751 13.596 42.183 13.572 42.519 13.476C43.395 13.236 43.851 12.612 44.043 11.916C44.127 11.568 44.175 11.244 44.175 10.932C44.175 10.308 44.019 9.564 43.539 8.988C43.299 8.712 42.963 8.508 42.519 8.388C42.183 8.292 41.751 8.268 41.415 8.268H38.607C37.887 8.268 37.575 8.016 37.131 7.512L36.903 7.668C37.287 8.124 37.527 8.664 37.527 9.336V12.624C37.527 13.356 37.263 13.656 36.831 14.04ZM55.7651 22.86C53.1131 22.86 51.0251 21.648 49.8851 19.632C49.3091 18.636 49.0211 17.484 49.0211 16.188C49.0211 13.356 50.2091 11.208 52.1771 10.044C53.1611 9.468 54.2891 9.18 55.5731 9.18C58.2971 9.18 60.2411 10.524 61.1531 12.84C61.6091 14.004 61.7651 15.36 61.6331 16.932H58.4051V15.732C58.4051 13.092 57.6251 12.012 55.7171 12.012C53.4971 12.012 52.4771 13.38 52.4771 16.02C52.4771 18.432 53.5451 19.812 55.5731 19.812C56.8571 19.812 57.7811 19.236 58.2611 18.18H61.6811C61.0451 21.384 58.2611 22.86 55.7651 22.86ZM60.0611 16.932H51.4691V14.508H52.5011L52.3931 15.612H52.7771C52.8611 14.892 53.4011 14.508 54.3011 14.508H60.0611V16.932ZM69.4547 22.86C66.7667 22.86 64.8107 21.576 63.7907 19.512C63.2747 18.48 63.0227 17.316 63.0227 16.02C63.0227 13.392 64.1387 11.256 66.0707 10.068C67.0427 9.48 68.1827 9.18 69.5027 9.18C72.5627 9.18 74.9027 10.896 75.3347 14.364H72.0707C71.6867 13.02 70.6547 12.228 69.4547 12.228C67.4507 12.228 66.4787 13.752 66.4787 16.02C66.4787 18.276 67.4867 19.812 69.4547 19.812C70.9307 19.812 71.6147 19.116 71.9987 17.868H75.3347C74.9027 21.276 72.4667 22.86 69.4547 22.86ZM82.6153 22.86C80.0113 22.86 77.9833 21.624 76.8913 19.56C76.3393 18.54 76.0633 17.352 76.0633 16.02C76.0633 13.32 77.2513 11.196 79.2193 10.044C80.2033 9.468 81.3313 9.18 82.6153 9.18C85.2193 9.18 87.2593 10.416 88.3633 12.468C88.9153 13.5 89.1913 14.688 89.1913 16.02C89.1913 18.708 88.0153 20.832 86.0473 21.984C85.0513 22.572 83.9113 22.86 82.6153 22.86ZM82.6153 19.812C84.7153 19.812 85.7353 18.24 85.7353 16.02C85.7353 13.716 84.6793 12.228 82.6153 12.228C80.5393 12.228 79.5193 13.692 79.5193 16.02C79.5193 18.336 80.5873 19.812 82.6153 19.812ZM94.5182 22.5H91.2302V9.54H94.1102V10.116C94.1102 10.98 93.8822 11.832 93.6422 12.708H93.9182C94.3382 11.496 94.6742 10.728 94.9262 10.38C95.4062 9.696 96.0662 9.504 96.9902 9.504H98.8382V12.504L96.7022 12.516C95.8982 12.504 95.3342 12.672 95.0102 13.02C94.6622 13.392 94.4942 14.052 94.5302 14.988L94.5182 22.5ZM105.074 22.86C102.866 22.86 101.162 21.576 100.25 19.512C99.7824 18.48 99.5544 17.316 99.5544 16.02C99.5544 13.38 100.538 11.256 102.242 10.068C103.094 9.48 104.09 9.18 105.23 9.18C108.518 9.18 110.45 11.952 110.45 16.02C110.45 20.088 108.518 22.86 105.074 22.86ZM111.914 5.22V22.5H109.034V22.236C109.034 21.564 109.466 20.784 109.85 20.364L109.502 20.112L109.034 20.76V13.62H108.626V10.716L109.166 11.28L109.466 11.076C108.89 10.524 108.626 9.828 108.626 9.36V5.22H111.914ZM106.058 19.956C107.51 19.956 108.362 19.272 108.746 18.084C108.938 17.496 109.034 16.8 109.034 16.02C109.034 14.448 108.674 13.236 107.834 12.576C107.414 12.252 106.862 12.084 106.178 12.084C104.066 12.084 103.01 13.728 103.01 16.02C103.01 18.336 104.03 19.956 106.058 19.956ZM119.75 22.86C116.486 22.86 114.422 21.48 113.906 18.108H117.302C117.578 19.32 118.55 20.052 119.99 20.052C121.178 20.052 121.838 19.572 121.838 18.756C121.838 18.24 121.682 17.976 120.794 17.676C120.35 17.52 119.654 17.328 118.718 17.076C116.606 16.536 115.382 15.888 114.818 14.952C114.542 14.484 114.398 13.92 114.398 13.26C114.398 11.592 115.286 10.344 116.834 9.672C117.602 9.348 118.514 9.18 119.558 9.18C121.586 9.18 123.194 9.828 124.166 10.98C124.646 11.556 124.946 12.432 125.066 13.62H121.718C121.61 12.66 120.866 12.084 119.63 11.988C118.43 11.904 117.638 12.336 117.638 13.092C117.638 13.596 117.974 13.836 118.85 14.124C119.342 14.28 120.086 14.496 121.094 14.748C123.938 15.492 125.174 16.524 125.174 18.588C125.174 21.24 123.146 22.86 119.75 22.86Z" fill="#5D5F66"/>
</svg>
